<svg xmlns="http://www.w3.org/2000/svg" viewBox="0 0 24 24" height="100" width="100"><defs></defs><title>image-file-landscape</title><circle cx="8.5" cy="9.5" r="2" fill="none" stroke="#000000" stroke-linecap="round" stroke-linejoin="round"></circle><path d="M13.924,12.178a.5.5,0,0,0-.848,0L10.437,16.4,9.362,14.678a.5.5,0,0,0-.848,0L5.5,19.5h13Z" fill="none" stroke="#000000" stroke-linecap="round" stroke-linejoin="round"></path><path d="M21.207,4.5a1,1,0,0,1,.293.707V22.5a1,1,0,0,1-1,1H3.5a1,1,0,0,1-1-1V1.5a1,1,0,0,1,1-1H16.793A1,1,0,0,1,17.5.793Z" fill="none" stroke="#000000" stroke-linecap="round" stroke-linejoin="round"></path></svg>