<svg xmlns="http://www.w3.org/2000/svg" viewBox="0 0 24 24" height="50" width="50"><defs></defs><title>loading</title><path d="M11,2a1,1,0,1,1,2,0V5a1,1,0,1,1-2,0Z" fill="none" stroke="#000000" stroke-linecap="round" stroke-linejoin="round"></path><path d="M4.382,5.753A1,1,0,0,1,5.8,4.338L7.918,6.459A1,1,0,1,1,6.505,7.874Z" fill="none" stroke="#000000" stroke-linecap="round" stroke-linejoin="round"></path><path d="M1,12a1,1,0,0,1,1-1H5a1,1,0,0,1,0,2H2A1,1,0,0,1,1,12Z" fill="none" stroke="#000000" stroke-linecap="round" stroke-linejoin="round"></path><path d="M4.129,19.852a1,1,0,0,1,0-1.415l2.12-2.122a1,1,0,1,1,1.415,1.414L5.543,19.851A1,1,0,0,1,4.129,19.852Z" fill="none" stroke="#000000" stroke-linecap="round" stroke-linejoin="round"></path><path d="M11,19a1,1,0,0,1,2,0v3a1,1,0,0,1-2,0Z" fill="none" stroke="#000000" stroke-linecap="round" stroke-linejoin="round"></path><path d="M16.4,17.774a1,1,0,0,1,1.416-1.416l2.122,2.12A1,1,0,0,1,18.527,19.9Z" fill="none" stroke="#000000" stroke-linecap="round" stroke-linejoin="round"></path><path d="M18,12a1,1,0,0,1,1-1h3a1,1,0,0,1,0,2H19A1,1,0,0,1,18,12Z" fill="none" stroke="#000000" stroke-linecap="round" stroke-linejoin="round"></path><path d="M16.218,7.738a1,1,0,0,1,0-1.416L18.337,4.2a1,1,0,0,1,1.416,1.416L17.632,7.738A1,1,0,0,1,16.218,7.738Z" fill="none" stroke="#000000" stroke-linecap="round" stroke-linejoin="round"></path></svg>